<?xml version="1.0" encoding="utf-8"?>
<!-- Generator: Adobe Illustrator 21.1.0, SVG Export Plug-In . SVG Version: 6.00 Build 0)  -->
<svg version="1.1" id="Capa_1" xmlns="http://www.w3.org/2000/svg" xmlns:xlink="http://www.w3.org/1999/xlink" x="0px" y="0px"
	 viewBox="0 0 612 474" style="enable-background:new 0 0 612 474;" xml:space="preserve">
<g>
	<path d="M612,18.5c-0.1-2.5-0.8-4.6-1.9-6.7c-0.4-0.7-0.1-1.5-0.6-2.2c-0.2-0.3-0.6-0.2-0.8-0.4c-0.3-0.4-0.3-0.8-0.5-1.1
		c-2.3-2.2-5.1-3.6-8.1-4.1c-0.3,0-0.5,0.1-0.8,0.1c-2.7-0.3-5.5-0.2-8,0.9L9,260.3c-5.9,2.6-9.5,8.7-9,15.2
		c0.5,6.5,5.2,11.9,11.5,13.4l131.7,31.9l64,136.6c0.4,0.9,1.3,1.3,1.9,2.1c0.3,0.5,0.1,1.1,0.5,1.5c0.6,0.7,1.5,1.1,2.3,1.7
		c0.6,0.5,1.1,1,1.9,1.4c2.3,1.3,4.6,2.1,7.2,2.1c0.6,0,1.1,0,1.7-0.1c2.9-0.3,5.3-1.7,7.4-3.3c0.2-0.2,0.7-0.1,0.9-0.3l100.9-89
		l99.9,32.8c7.4,2.3,15.6-1.2,18.7-8.4L611.4,24.8c0.3-0.9,0.1-1.9,0.2-2.9C611.9,20.7,612,19.8,612,18.5z M237.6,318.3
		c-0.3,0.2-0.2,0.6-0.4,0.8c-2,2.1-3.7,4.4-4.3,7.3l-17,77.6l-42.5-90.8l262.1-170.9L237.6,318.3z M434.9,106.6L151.2,291.5
		L62.3,270L434.9,106.6z M245.8,409.1l13-59.7l39.8,13.1L245.8,409.1z M428.3,373l-150.8-49.5L556.5,75.4L428.3,373z"/>
</g>
</svg>
